<?xml version="1.0" standalone="no"?>
<!DOCTYPE svg PUBLIC "-//W3C//DTD SVG 20010904//EN"
 "http://www.w3.org/TR/2001/REC-SVG-20010904/DTD/svg10.dtd">
<svg version="1.0" xmlns="http://www.w3.org/2000/svg"
 width="425.000000pt" height="119.000000pt" viewBox="0 0 425.000000 119.000000"
 preserveAspectRatio="xMidYMid meet">

<g transform="translate(0.000000,119.000000) scale(0.100000,-0.100000)"
fill="#000000" stroke="none">
<path d="M422 1115 c-161 -81 -356 -319 -378 -461 -7 -46 13 -96 46 -116 15
-10 18 -20 13 -59 -8 -66 24 -131 81 -164 24 -14 51 -25 62 -25 12 0 27 -14
39 -37 107 -198 402 -273 617 -156 93 51 170 161 184 264 5 38 2 49 -18 74
-34 41 -39 59 -26 93 16 41 -10 79 -72 105 l-48 20 -4 68 c-3 42 -13 80 -25
102 -20 34 -20 34 -1 58 32 40 58 102 58 140 0 89 -122 120 -256 64 l-37 -15
-43 40 c-57 52 -95 53 -192 5z m164 -36 c18 -20 24 -33 17 -36 -29 -11 -158
-109 -207 -158 -65 -64 -107 -124 -146 -206 -27 -58 -51 -82 -119 -115 -18 -9
-51 30 -51 62 0 37 37 127 81 195 62 96 184 210 269 253 90 45 117 46 156 5z
m95 -133 c-9 -11 -3 -14 30 -19 78 -10 58 -22 -39 -22 -88 0 -104 -3 -167 -33
l-70 -32 49 45 c62 58 86 72 86 50 0 -13 4 -14 22 -4 25 13 66 27 87 28 10 1
11 -2 2 -13z m183 -158 c9 -13 16 -44 16 -73 0 -77 8 -93 49 -106 87 -27 102
-61 51 -109 -51 -47 -131 -72 -245 -76 -79 -3 -103 -7 -112 -21 -28 -37 -8
-88 42 -109 75 -31 219 -8 295 46 44 32 33 33 -29 4 -104 -50 -238 -56 -277
-13 -18 20 -18 20 47 14 37 -4 75 -2 89 3 21 9 15 11 -37 11 -69 1 -118 15
-108 32 5 7 24 8 54 4 82 -11 201 17 302 72 4 2 12 -10 17 -27 6 -16 16 -30
21 -30 21 0 10 -66 -19 -118 -55 -96 -164 -149 -285 -140 -170 14 -252 156
-175 303 l30 57 -31 38 c-57 71 -47 170 20 204 18 10 53 14 99 13 59 -2 75 2
99 20 36 28 68 29 87 1z m-564 -231 c36 -28 50 -62 50 -120 0 -71 -28 -107
-82 -107 -110 0 -169 141 -88 213 33 29 92 37 120 14z"/>
<path d="M815 700 c-10 -17 5 -70 20 -70 20 0 25 13 17 45 -9 31 -26 43 -37
25z"/>
<path d="M623 628 c-36 -17 -27 -23 38 -23 59 0 60 0 38 18 -24 19 -44 21 -76
5z"/>
<path d="M835 590 c-7 -12 2 -30 16 -30 5 0 9 9 9 20 0 21 -15 27 -25 10z"/>
<path d="M645 581 c-3 -5 10 -9 30 -8 19 1 35 5 35 10 0 10 -58 9 -65 -2z"/>
<path d="M780 555 c7 -8 16 -12 21 -9 13 8 1 24 -18 24 -13 0 -13 -3 -3 -15z"/>
<path d="M207 512 c-10 -10 -17 -29 -16 -43 0 -24 0 -24 11 -2 23 48 74 33 64
-19 -7 -38 2 -58 27 -58 19 0 20 1 3 13 -14 10 -15 17 -7 40 15 38 14 44 -9
67 -25 25 -52 26 -73 2z"/>
<path d="M1541 1002 c-65 -32 -75 -58 -76 -185 l0 -112 38 -3 37 -3 0 101 c0
94 2 103 25 125 29 30 55 32 86 6 22 -18 24 -28 27 -125 l4 -106 34 0 34 0 0
113 c0 95 -3 117 -20 145 -36 58 -122 79 -189 44z"/>
<path d="M1310 855 l0 -155 35 0 35 0 0 155 0 155 -35 0 -35 0 0 -155z"/>
<path d="M1792 978 c3 -32 5 -33 51 -36 l47 -3 0 -120 0 -119 35 0 35 0 0 120
0 120 50 0 50 0 0 35 0 35 -136 0 -135 0 3 -32z"/>
<path d="M2110 903 c0 -89 3 -114 20 -140 25 -42 68 -63 125 -63 103 0 145 61
145 213 l0 97 -40 0 -40 0 0 -98 c0 -90 -2 -100 -23 -120 -29 -27 -61 -28 -87
-2 -17 17 -20 33 -20 120 l0 100 -40 0 -40 0 0 -107z"/>
<path d="M2480 854 l0 -155 38 3 37 3 3 153 3 152 -41 0 -40 0 0 -156z"/>
<path d="M2610 975 c0 -35 0 -35 45 -35 l45 0 0 -120 0 -120 40 0 40 0 0 120
0 120 45 0 c45 0 45 0 45 35 l0 35 -130 0 -130 0 0 -35z"/>
<path d="M2198 609 c-26 -15 -22 -46 8 -65 31 -21 90 -10 108 19 23 39 -68 75
-116 46z"/>
<path d="M2360 409 l0 -210 53 3 52 3 3 208 2 207 -55 0 -55 0 0 -211z"/>
<path d="M2840 410 l0 -210 55 0 55 0 0 103 c0 93 2 106 21 123 21 19 21 18
40 -5 16 -19 19 -40 19 -122 l0 -99 55 0 55 0 0 113 c0 176 -20 217 -107 217
-47 0 -76 -21 -94 -67 -16 -44 -20 -19 -7 54 15 92 10 103 -47 103 l-45 0 0
-210z"/>
<path d="M3189 601 c-31 -26 -17 -52 34 -65 42 -11 87 12 87 44 0 41 -80 54
-121 21z"/>
<path d="M1310 365 l0 -165 55 0 55 0 0 104 c0 82 3 108 16 120 40 40 54 9 54
-116 l0 -109 57 3 56 3 -2 85 c-2 91 8 133 33 143 34 13 46 -20 46 -129 l0
-104 55 0 55 0 0 120 c0 170 -20 210 -105 210 -37 0 -78 -32 -90 -71 -10 -29
-25 -23 -25 10 0 42 -24 61 -75 61 -44 0 -62 -14 -102 -76 -10 -16 -11 -11 -6
29 l6 47 -42 0 -41 0 0 -165z"/>
<path d="M1880 517 c-33 -11 -35 -15 -38 -59 -2 -27 -1 -48 1 -48 3 0 24 9 48
20 55 25 101 25 122 2 10 -10 17 -21 17 -24 0 -3 -31 -8 -68 -10 -82 -6 -118
-27 -131 -75 -12 -42 6 -95 37 -112 54 -29 141 -3 164 49 15 35 33 40 24 7 -3
-12 -3 -33 1 -45 4 -18 12 -22 44 -22 l39 0 0 110 c0 177 -30 220 -154 219
-39 0 -87 -5 -106 -12z m140 -190 c0 -16 -27 -41 -52 -50 -23 -8 -51 15 -43
35 11 27 95 40 95 15z"/>
<path d="M2569 506 c-44 -30 -64 -74 -63 -142 1 -62 26 -109 74 -141 44 -30
131 -32 178 -3 29 18 32 24 32 70 0 54 -3 56 -40 35 -37 -21 -113 -19 -133 3
-22 24 -21 55 1 75 24 22 103 22 142 2 l30 -16 0 55 c0 51 -2 57 -30 71 -17 9
-55 15 -92 15 -51 0 -71 -5 -99 -24z"/>
<path d="M3350 366 l0 -166 55 0 55 0 0 98 c0 72 4 103 16 120 18 26 27 27 48
6 13 -12 16 -38 16 -120 l0 -104 55 0 55 0 0 104 c0 82 3 108 16 120 40 40 54
9 54 -116 l0 -108 55 0 55 0 0 134 c0 130 -1 135 -26 165 -21 26 -33 31 -69
31 -44 0 -63 -14 -102 -76 -11 -18 -12 -17 -12 6 -1 46 -27 70 -74 70 -50 0
-80 -18 -97 -60 -15 -36 -33 -40 -24 -5 14 55 11 60 -33 63 l-43 3 0 -165z"/>
<path d="M3880 326 l0 -206 55 0 55 0 0 61 0 60 26 -20 c33 -26 95 -28 130 -5
75 50 82 214 12 284 -25 25 -37 30 -79 30 -41 0 -54 -5 -74 -26 -14 -15 -25
-33 -25 -40 0 -7 -5 -16 -10 -19 -7 -4 -10 9 -8 37 l3 43 -42 3 -43 3 0 -205z
m194 98 c32 -31 21 -138 -15 -149 -34 -11 -59 20 -59 74 0 74 38 112 74 75z"/>
<path d="M2190 354 l0 -154 55 0 55 0 0 153 0 153 -55 0 -55 1 0 -153z"/>
<path d="M3190 353 l0 -153 55 0 55 0 0 154 0 153 -55 -1 -55 0 0 -153z"/>
</g>
</svg>
